Patient4_TMGait_0pt2_01_left_08_EMG.mot
version=1
nRows=16
nColumns=33
inDegrees=no
endheader
time	1LAddLong	2LGlutMax	3LGlutMed	4LIliopsoas	5LSemiMemb	6LBicFemLong	7LRecFem	8LVastMed	9LVastLat	10LGasMed	11LTibAnt	12lTibPost	13LPeroneusLong	14LSol	15LExtDigLong	16LFlexDigLong	17RAddLong	18RGlutMax	19RGlutMed	20RIliopsoas	21RSemiMemb	22RBicFemLong	23RRecFem	24RVastMed	25RVastLat	26RGasMed	27RTibAnt	28RTibPost	29RPeroneusLong	30RSol	31RExtDigLong	32RFlexDigLong
17.36	0.012665	-0.20294	-0.010986	0.003662	0.001373	-0.019379	0.023956	0.004272	-0.083618	-0.006256	-0.002289	-0.092621	0.034637	0.23132	0.020599	-0.002136	-0.018616	0.12344	0.22171	0.005798	-0.038452	0.18005	0.003967	-0.18524	0.12161	0	0.031281	0.013428	1.4928	-0.067596	-0.002747	-0.012665
17.361	0.001678	-0.17899	-0.015411	-0.009003	0.00351	-0.001068	0.015869	0.005188	-0.077667	-0.017395	-0.003357	0.015717	0.053711	0.27206	0.019226	-0.020599	-0.002136	0.091248	-0.010376	0.062256	-0.034027	-0.009308	0.074463	-0.14511	-0.25192	-0.010071	-0.097961	-0.011749	0.052185	-0.060272	0.000763	-0.012665
17.362	0.007629	-0.19638	-0.007324	-0.005493	0.004272	0.002441	0.028687	0.005951	-0.085144	0.005493	0.001068	0.021362	0.059357	-0.10986	0.026703	-0.025482	0.005493	0.094452	0.022736	0.029907	0.068359	-0.15884	0.19882	-0.087585	-0.70038	-0.037231	-0.63095	-0.008392	-2.0879	-0.000763	-0.002136	-0.0177
17.363	0.003052	-0.19547	-0.026398	0.007782	-0.00885	-0.015106	0.031738	0.004883	-0.074158	-0.016174	-0.005646	0.017853	0.005493	-0.15671	0.024109	-0.016174	-0.006714	0.087891	0.33707	-0.019073	0.074463	-0.27588	0.31754	0.066681	-0.70297	-0.041809	-0.39887	-0.007019	-1.3284	0.032806	-0.000305	-0.01709
17.364	0.00061	-0.21332	-0.015411	0.008545	-0.00885	0.003662	0.00824	0.007629	-0.078125	-0.014954	-0.000458	0.010681	-0.10712	0.093384	0.016937	-0.005035	-0.010223	0.037994	0.5484	-0.010834	0.031738	-0.23041	0.28046	0.12482	-0.39841	-0.05127	-0.20798	-0.007782	0.27542	-0.023651	0.002136	-0.000458
17.365	0.012207	-0.15778	-0.008087	-0.00351	-0.010834	0.005646	0.025177	0.005035	-0.091248	0.00885	0.004578	0.002747	-0.17822	0.21683	0.001526	-0.01236	-0.003815	0.066986	-0.019989	0.011444	-0.050507	-0.10605	0.12543	0.079041	-0.20309	-0.029297	-0.029907	-0.007935	1.2509	0.063782	0.007629	-0.013123
17.366	0.005341	-0.1799	-0.025635	0.007324	0.008392	-0.002441	0.013275	-0.004272	-0.090179	0.006104	-0.009918	0.006409	-0.011444	0.23514	0.00061	-0.005341	0.003204	0.097809	-0.2446	-0.02182	-0.073242	-0.055237	0.03952	0.067139	-0.11444	-0.011444	-0.066528	-0.010071	0.45807	0.027771	0.005951	-0.011139
17.367	0.009766	-0.17761	-0.040283	0.007477	0.001984	-0.007935	-0.014496	0.002441	-0.085449	0.004272	-0.010071	-0.000305	0.1619	0.20721	0.026398	0.002747	0.017853	0.13962	-0.18845	-0.068054	0.009613	-0.090179	0.007935	0.1059	-0.083466	0.055237	-0.007172	-0.011749	-0.44632	-0.066223	-0.001068	-0.005341
17.368	0.003204	-0.17425	-0.014801	-0.00473	0.005798	-0.002136	0.005951	0.009003	-0.10162	-0.003357	-0.004883	-0.003204	0.048065	0.10498	0.018616	-0.001678	0.029602	0.11902	-0.010986	-0.010529	-0.006714	-0.17029	-0.082397	0.065002	-0.010529	-0.058746	0.088348	-0.011749	-0.17044	-0.10742	0.002289	-0.004578
17.369	0.005951	-0.18494	0.009918	-0.009918	0.003815	-0.019531	0.030823	-0.001984	-0.09552	-0.000916	-0.006714	-0.000916	0.022278	0.090027	0.031738	0.009308	0.026855	0.12482	-0.16068	-0.021973	-0.01709	-0.1471	-0.079498	-0.034637	0.028687	-0.058899	0.07843	-0.005493	-0.082245	-0.046844	0.001984	-0.00351
17.37	0.002594	-0.20523	-0.01709	0.011749	0.003204	-0.006866	0.019073	-0.001068	-0.084076	-0.01358	-0.009613	-0.005646	-0.005493	0.15533	0.013123	0.003204	0.028839	0.092316	0.000153	-0.029907	-0.007782	-0.14954	-0.057373	-0.2179	0.001831	0.010529	-0.010071	0.008087	-0.74005	-0.046082	0.003204	-0.00473
17.371	0.002289	-0.20767	-0.024567	0.012207	0.003967	-0.029449	0.035706	-0.000763	-0.09079	-0.014038	-0.009308	-0.007019	0.023499	0.13138	0.012054	-0.003357	0.019379	0.096741	0.003815	-0.079041	0.010681	-0.13351	-0.068054	-0.16693	0.037231	0.05127	0.014954	0.013428	0.34241	-0.16586	0.002289	-0.007172
17.372	0.004425	-0.18601	-0.017395	0.008087	0.012665	-0.016937	0.027008	-0.00061	-0.089264	0.002747	-0.007019	-0.018311	-0.029907	0.069275	0.02243	0.000153	0.018921	0.093384	-0.047302	-0.061798	-0.001068	-0.13107	-0.05722	-0.12741	0.084991	0.033569	0.1004	-0.018463	-0.60684	-0.16495	0.005646	-0.013428
17.373	0.014343	-0.20462	-0.005646	0.002594	-0.001221	-0.025177	0.014191	-0.001678	-0.083618	-0.001984	0.000763	-0.036163	-0.054321	-0.037384	0.019379	0.005493	0.021515	0.088348	-0.0177	-0.032806	-0.034332	-0.19409	0.019379	-0.090942	0.10376	0.021667	0.056915	-0.017853	-0.48096	-0.073242	-0.005493	-0.021667
17.374	0.006256	-0.22461	0.00412	-0.002441	-0.005035	-0.02182	0.011749	-0.000305	-0.083923	0.045776	-0.000305	-0.033417	-0.22827	-0.12436	0.019989	-0.000458	0.014343	0.077972	0.28702	0.058746	-0.087738	-0.23682	0.015259	0.001678	0.033264	0.014343	0.078125	0.00946	-0.49774	0.039368	0.002441	-0.012054
17.375	0.010834	-0.18127	0.051575	0.019836	0.002594	-0.026398	0.005493	-0.001984	-0.080872	0.033264	0	-0.012054	-0.094604	0.075226	0.040436	-0.007782	0.024872	0.10101	0.45075	0.041046	-0.057068	-0.26291	0.084991	0.10223	0.032501	-0.014038	0.023804	0.001831	0.90576	0.14313	-0.002899	-0.013885
